<mxfile host="app.diagrams.net" agent="Mozilla/5.0 (Windows NT 10.0; Win64; x64; rv:133.0) Gecko/20100101 Firefox/133.0" version="25.0.1">
  <diagram name="Page-1" id="0j31xHrQP-VFH683YAqx">
    <mxGraphModel dx="2489" dy="1044" grid="1" gridSize="10" guides="1" tooltips="1" connect="1" arrows="1" fold="1" page="1" pageScale="1" pageWidth="850" pageHeight="1100" math="0" shadow="0">
      <root>
        <mxCell id="0" />
        <mxCell id="1" parent="0" />
        <mxCell id="gbYFq_Lmo5UCrpv-fVpX-6" value="DimUsers" style="swimlane;fontStyle=0;childLayout=stackLayout;horizontal=1;startSize=26;fillColor=default;horizontalStack=0;resizeParent=1;resizeLast=0;collapsible=1;marginBottom=0;swimlaneFillColor=default;align=center;" parent="1" vertex="1">
          <mxGeometry x="840" y="406" width="255" height="184" as="geometry" />
        </mxCell>
        <mxCell id="gbYFq_Lmo5UCrpv-fVpX-7" value="UserID" style="shape=partialRectangle;top=0;left=0;right=0;bottom=0;align=left;verticalAlign=top;spacingTop=-2;fillColor=none;spacingLeft=64;spacingRight=4;overflow=hidden;rotatable=0;points=[[0,0.5],[1,0.5]];portConstraint=eastwest;dropTarget=0;" parent="gbYFq_Lmo5UCrpv-fVpX-6" vertex="1">
          <mxGeometry y="26" width="255" height="26" as="geometry" />
        </mxCell>
        <mxCell id="gbYFq_Lmo5UCrpv-fVpX-8" value="SK" style="shape=partialRectangle;top=0;left=0;bottom=0;fillColor=none;align=left;verticalAlign=middle;spacingLeft=4;spacingRight=4;overflow=hidden;rotatable=180;points=[];portConstraint=eastwest;part=1;" parent="gbYFq_Lmo5UCrpv-fVpX-7" vertex="1" connectable="0">
          <mxGeometry width="54" height="26" as="geometry" />
        </mxCell>
        <mxCell id="gbYFq_Lmo5UCrpv-fVpX-9" value="Name" style="shape=partialRectangle;top=0;left=0;right=0;bottom=0;align=left;verticalAlign=top;spacingTop=-2;fillColor=none;spacingLeft=64;spacingRight=4;overflow=hidden;rotatable=0;points=[[0,0.5],[1,0.5]];portConstraint=eastwest;dropTarget=0;" parent="gbYFq_Lmo5UCrpv-fVpX-6" vertex="1">
          <mxGeometry y="52" width="255" height="26" as="geometry" />
        </mxCell>
        <mxCell id="gbYFq_Lmo5UCrpv-fVpX-10" value="" style="shape=partialRectangle;top=0;left=0;bottom=0;fillColor=none;align=left;verticalAlign=middle;spacingLeft=4;spacingRight=4;overflow=hidden;rotatable=180;points=[];portConstraint=eastwest;part=1;" parent="gbYFq_Lmo5UCrpv-fVpX-9" vertex="1" connectable="0">
          <mxGeometry width="54" height="26" as="geometry" />
        </mxCell>
        <mxCell id="gbYFq_Lmo5UCrpv-fVpX-11" value="Email" style="shape=partialRectangle;top=0;left=0;right=0;bottom=0;align=left;verticalAlign=top;spacingTop=-2;fillColor=none;spacingLeft=64;spacingRight=4;overflow=hidden;rotatable=0;points=[[0,0.5],[1,0.5]];portConstraint=eastwest;dropTarget=0;" parent="gbYFq_Lmo5UCrpv-fVpX-6" vertex="1">
          <mxGeometry y="78" width="255" height="26" as="geometry" />
        </mxCell>
        <mxCell id="gbYFq_Lmo5UCrpv-fVpX-12" value="" style="shape=partialRectangle;top=0;left=0;bottom=0;fillColor=none;align=left;verticalAlign=middle;spacingLeft=4;spacingRight=4;overflow=hidden;rotatable=180;points=[];portConstraint=eastwest;part=1;" parent="gbYFq_Lmo5UCrpv-fVpX-11" vertex="1" connectable="0">
          <mxGeometry width="54" height="26" as="geometry" />
        </mxCell>
        <mxCell id="gbYFq_Lmo5UCrpv-fVpX-13" value="Password" style="shape=partialRectangle;top=0;left=0;right=0;bottom=0;align=left;verticalAlign=top;spacingTop=-2;fillColor=none;spacingLeft=64;spacingRight=4;overflow=hidden;rotatable=0;points=[[0,0.5],[1,0.5]];portConstraint=eastwest;dropTarget=0;" parent="gbYFq_Lmo5UCrpv-fVpX-6" vertex="1">
          <mxGeometry y="104" width="255" height="26" as="geometry" />
        </mxCell>
        <mxCell id="gbYFq_Lmo5UCrpv-fVpX-14" value="" style="shape=partialRectangle;top=0;left=0;bottom=0;fillColor=none;align=left;verticalAlign=middle;spacingLeft=4;spacingRight=4;overflow=hidden;rotatable=180;points=[];portConstraint=eastwest;part=1;" parent="gbYFq_Lmo5UCrpv-fVpX-13" vertex="1" connectable="0">
          <mxGeometry width="54" height="26" as="geometry" />
        </mxCell>
        <mxCell id="gbYFq_Lmo5UCrpv-fVpX-15" value="Phone" style="shape=partialRectangle;top=0;left=0;right=0;bottom=0;align=left;verticalAlign=top;spacingTop=-2;fillColor=none;spacingLeft=64;spacingRight=4;overflow=hidden;rotatable=0;points=[[0,0.5],[1,0.5]];portConstraint=eastwest;dropTarget=0;" parent="gbYFq_Lmo5UCrpv-fVpX-6" vertex="1">
          <mxGeometry y="130" width="255" height="26" as="geometry" />
        </mxCell>
        <mxCell id="gbYFq_Lmo5UCrpv-fVpX-16" value="" style="shape=partialRectangle;top=0;left=0;bottom=0;fillColor=none;align=left;verticalAlign=middle;spacingLeft=4;spacingRight=4;overflow=hidden;rotatable=180;points=[];portConstraint=eastwest;part=1;" parent="gbYFq_Lmo5UCrpv-fVpX-15" vertex="1" connectable="0">
          <mxGeometry width="54" height="26" as="geometry" />
        </mxCell>
        <mxCell id="gbYFq_Lmo5UCrpv-fVpX-19" value="RegistrationDate" style="shape=partialRectangle;top=0;left=0;right=0;bottom=0;align=left;verticalAlign=top;spacingTop=-2;fillColor=none;spacingLeft=64;spacingRight=4;overflow=hidden;rotatable=0;points=[[0,0.5],[1,0.5]];portConstraint=eastwest;dropTarget=0;" parent="gbYFq_Lmo5UCrpv-fVpX-6" vertex="1">
          <mxGeometry y="156" width="255" height="26" as="geometry" />
        </mxCell>
        <mxCell id="gbYFq_Lmo5UCrpv-fVpX-20" value="" style="shape=partialRectangle;top=0;left=0;bottom=0;fillColor=none;align=left;verticalAlign=middle;spacingLeft=4;spacingRight=4;overflow=hidden;rotatable=180;points=[];portConstraint=eastwest;part=1;" parent="gbYFq_Lmo5UCrpv-fVpX-19" vertex="1" connectable="0">
          <mxGeometry width="54" height="26" as="geometry" />
        </mxCell>
        <mxCell id="gbYFq_Lmo5UCrpv-fVpX-21" value="DimCategories" style="swimlane;fontStyle=0;childLayout=stackLayout;horizontal=1;startSize=26;fillColor=default;horizontalStack=0;resizeParent=1;resizeLast=0;collapsible=1;marginBottom=0;swimlaneFillColor=default;align=center;" parent="1" vertex="1">
          <mxGeometry x="780" y="950" width="290" height="104" as="geometry" />
        </mxCell>
        <mxCell id="gbYFq_Lmo5UCrpv-fVpX-22" value="CategoryID" style="shape=partialRectangle;top=0;left=0;right=0;bottom=0;align=left;verticalAlign=top;spacingTop=-2;fillColor=none;spacingLeft=64;spacingRight=4;overflow=hidden;rotatable=0;points=[[0,0.5],[1,0.5]];portConstraint=eastwest;dropTarget=0;" parent="gbYFq_Lmo5UCrpv-fVpX-21" vertex="1">
          <mxGeometry y="26" width="290" height="26" as="geometry" />
        </mxCell>
        <mxCell id="gbYFq_Lmo5UCrpv-fVpX-23" value="SK" style="shape=partialRectangle;top=0;left=0;bottom=0;fillColor=none;align=left;verticalAlign=middle;spacingLeft=4;spacingRight=4;overflow=hidden;rotatable=180;points=[];portConstraint=eastwest;part=1;" parent="gbYFq_Lmo5UCrpv-fVpX-22" vertex="1" connectable="0">
          <mxGeometry width="54" height="26" as="geometry" />
        </mxCell>
        <mxCell id="gbYFq_Lmo5UCrpv-fVpX-24" value="CategoryName" style="shape=partialRectangle;top=0;left=0;right=0;bottom=0;align=left;verticalAlign=top;spacingTop=-2;fillColor=none;spacingLeft=64;spacingRight=4;overflow=hidden;rotatable=0;points=[[0,0.5],[1,0.5]];portConstraint=eastwest;dropTarget=0;" parent="gbYFq_Lmo5UCrpv-fVpX-21" vertex="1">
          <mxGeometry y="52" width="290" height="26" as="geometry" />
        </mxCell>
        <mxCell id="gbYFq_Lmo5UCrpv-fVpX-25" value="" style="shape=partialRectangle;top=0;left=0;bottom=0;fillColor=none;align=left;verticalAlign=middle;spacingLeft=4;spacingRight=4;overflow=hidden;rotatable=180;points=[];portConstraint=eastwest;part=1;" parent="gbYFq_Lmo5UCrpv-fVpX-24" vertex="1" connectable="0">
          <mxGeometry width="54" height="26" as="geometry" />
        </mxCell>
        <mxCell id="gbYFq_Lmo5UCrpv-fVpX-26" value="ParentCategoryID" style="shape=partialRectangle;top=0;left=0;right=0;bottom=0;align=left;verticalAlign=top;spacingTop=-2;fillColor=none;spacingLeft=64;spacingRight=4;overflow=hidden;rotatable=0;points=[[0,0.5],[1,0.5]];portConstraint=eastwest;dropTarget=0;" parent="gbYFq_Lmo5UCrpv-fVpX-21" vertex="1">
          <mxGeometry y="78" width="290" height="26" as="geometry" />
        </mxCell>
        <mxCell id="gbYFq_Lmo5UCrpv-fVpX-27" value="FK" style="shape=partialRectangle;top=0;left=0;bottom=0;fillColor=none;align=left;verticalAlign=middle;spacingLeft=4;spacingRight=4;overflow=hidden;rotatable=180;points=[];portConstraint=eastwest;part=1;" parent="gbYFq_Lmo5UCrpv-fVpX-26" vertex="1" connectable="0">
          <mxGeometry width="54" height="26" as="geometry" />
        </mxCell>
        <mxCell id="gbYFq_Lmo5UCrpv-fVpX-28" value="DimListings" style="swimlane;fontStyle=0;childLayout=stackLayout;horizontal=1;startSize=26;fillColor=default;horizontalStack=0;resizeParent=1;resizeLast=0;collapsible=1;marginBottom=0;swimlaneFillColor=default;align=center;" parent="1" vertex="1">
          <mxGeometry x="1160" y="630" width="288" height="234" as="geometry" />
        </mxCell>
        <mxCell id="gbYFq_Lmo5UCrpv-fVpX-29" value="ListingID" style="shape=partialRectangle;top=0;left=0;right=0;bottom=0;align=left;verticalAlign=top;spacingTop=-2;fillColor=none;spacingLeft=64;spacingRight=4;overflow=hidden;rotatable=0;points=[[0,0.5],[1,0.5]];portConstraint=eastwest;dropTarget=0;" parent="gbYFq_Lmo5UCrpv-fVpX-28" vertex="1">
          <mxGeometry y="26" width="288" height="26" as="geometry" />
        </mxCell>
        <mxCell id="gbYFq_Lmo5UCrpv-fVpX-30" value="SK" style="shape=partialRectangle;top=0;left=0;bottom=0;fillColor=none;align=left;verticalAlign=middle;spacingLeft=4;spacingRight=4;overflow=hidden;rotatable=180;points=[];portConstraint=eastwest;part=1;" parent="gbYFq_Lmo5UCrpv-fVpX-29" vertex="1" connectable="0">
          <mxGeometry width="54" height="26" as="geometry" />
        </mxCell>
        <mxCell id="gbYFq_Lmo5UCrpv-fVpX-31" value="Title" style="shape=partialRectangle;top=0;left=0;right=0;bottom=0;align=left;verticalAlign=top;spacingTop=-2;fillColor=none;spacingLeft=64;spacingRight=4;overflow=hidden;rotatable=0;points=[[0,0.5],[1,0.5]];portConstraint=eastwest;dropTarget=0;" parent="gbYFq_Lmo5UCrpv-fVpX-28" vertex="1">
          <mxGeometry y="52" width="288" height="26" as="geometry" />
        </mxCell>
        <mxCell id="gbYFq_Lmo5UCrpv-fVpX-32" value="" style="shape=partialRectangle;top=0;left=0;bottom=0;fillColor=none;align=left;verticalAlign=middle;spacingLeft=4;spacingRight=4;overflow=hidden;rotatable=180;points=[];portConstraint=eastwest;part=1;" parent="gbYFq_Lmo5UCrpv-fVpX-31" vertex="1" connectable="0">
          <mxGeometry width="54" height="26" as="geometry" />
        </mxCell>
        <mxCell id="gbYFq_Lmo5UCrpv-fVpX-33" value="Description" style="shape=partialRectangle;top=0;left=0;right=0;bottom=0;align=left;verticalAlign=top;spacingTop=-2;fillColor=none;spacingLeft=64;spacingRight=4;overflow=hidden;rotatable=0;points=[[0,0.5],[1,0.5]];portConstraint=eastwest;dropTarget=0;" parent="gbYFq_Lmo5UCrpv-fVpX-28" vertex="1">
          <mxGeometry y="78" width="288" height="26" as="geometry" />
        </mxCell>
        <mxCell id="gbYFq_Lmo5UCrpv-fVpX-34" value="" style="shape=partialRectangle;top=0;left=0;bottom=0;fillColor=none;align=left;verticalAlign=middle;spacingLeft=4;spacingRight=4;overflow=hidden;rotatable=180;points=[];portConstraint=eastwest;part=1;" parent="gbYFq_Lmo5UCrpv-fVpX-33" vertex="1" connectable="0">
          <mxGeometry width="54" height="26" as="geometry" />
        </mxCell>
        <mxCell id="gbYFq_Lmo5UCrpv-fVpX-35" value="Price" style="shape=partialRectangle;top=0;left=0;right=0;bottom=0;align=left;verticalAlign=top;spacingTop=-2;fillColor=none;spacingLeft=64;spacingRight=4;overflow=hidden;rotatable=0;points=[[0,0.5],[1,0.5]];portConstraint=eastwest;dropTarget=0;" parent="gbYFq_Lmo5UCrpv-fVpX-28" vertex="1">
          <mxGeometry y="104" width="288" height="26" as="geometry" />
        </mxCell>
        <mxCell id="gbYFq_Lmo5UCrpv-fVpX-36" value="" style="shape=partialRectangle;top=0;left=0;bottom=0;fillColor=none;align=left;verticalAlign=middle;spacingLeft=4;spacingRight=4;overflow=hidden;rotatable=180;points=[];portConstraint=eastwest;part=1;" parent="gbYFq_Lmo5UCrpv-fVpX-35" vertex="1" connectable="0">
          <mxGeometry width="54" height="26" as="geometry" />
        </mxCell>
        <mxCell id="gbYFq_Lmo5UCrpv-fVpX-37" value="CategoryID" style="shape=partialRectangle;top=0;left=0;right=0;bottom=0;align=left;verticalAlign=top;spacingTop=-2;fillColor=none;spacingLeft=64;spacingRight=4;overflow=hidden;rotatable=0;points=[[0,0.5],[1,0.5]];portConstraint=eastwest;dropTarget=0;" parent="gbYFq_Lmo5UCrpv-fVpX-28" vertex="1">
          <mxGeometry y="130" width="288" height="26" as="geometry" />
        </mxCell>
        <mxCell id="gbYFq_Lmo5UCrpv-fVpX-38" value="FK" style="shape=partialRectangle;top=0;left=0;bottom=0;fillColor=none;align=left;verticalAlign=middle;spacingLeft=4;spacingRight=4;overflow=hidden;rotatable=180;points=[];portConstraint=eastwest;part=1;" parent="gbYFq_Lmo5UCrpv-fVpX-37" vertex="1" connectable="0">
          <mxGeometry width="54" height="26" as="geometry" />
        </mxCell>
        <mxCell id="gbYFq_Lmo5UCrpv-fVpX-39" value="UserID" style="shape=partialRectangle;top=0;left=0;right=0;bottom=0;align=left;verticalAlign=top;spacingTop=-2;fillColor=none;spacingLeft=64;spacingRight=4;overflow=hidden;rotatable=0;points=[[0,0.5],[1,0.5]];portConstraint=eastwest;dropTarget=0;" parent="gbYFq_Lmo5UCrpv-fVpX-28" vertex="1">
          <mxGeometry y="156" width="288" height="26" as="geometry" />
        </mxCell>
        <mxCell id="gbYFq_Lmo5UCrpv-fVpX-40" value="FK" style="shape=partialRectangle;top=0;left=0;bottom=0;fillColor=none;align=left;verticalAlign=middle;spacingLeft=4;spacingRight=4;overflow=hidden;rotatable=180;points=[];portConstraint=eastwest;part=1;" parent="gbYFq_Lmo5UCrpv-fVpX-39" vertex="1" connectable="0">
          <mxGeometry width="54" height="26" as="geometry" />
        </mxCell>
        <mxCell id="gbYFq_Lmo5UCrpv-fVpX-41" value="DatePosted" style="shape=partialRectangle;top=0;left=0;right=0;bottom=0;align=left;verticalAlign=top;spacingTop=-2;fillColor=none;spacingLeft=64;spacingRight=4;overflow=hidden;rotatable=0;points=[[0,0.5],[1,0.5]];portConstraint=eastwest;dropTarget=0;" parent="gbYFq_Lmo5UCrpv-fVpX-28" vertex="1">
          <mxGeometry y="182" width="288" height="26" as="geometry" />
        </mxCell>
        <mxCell id="gbYFq_Lmo5UCrpv-fVpX-42" value="" style="shape=partialRectangle;top=0;left=0;bottom=0;fillColor=none;align=left;verticalAlign=middle;spacingLeft=4;spacingRight=4;overflow=hidden;rotatable=180;points=[];portConstraint=eastwest;part=1;" parent="gbYFq_Lmo5UCrpv-fVpX-41" vertex="1" connectable="0">
          <mxGeometry width="54" height="26" as="geometry" />
        </mxCell>
        <mxCell id="gbYFq_Lmo5UCrpv-fVpX-43" value="Status" style="shape=partialRectangle;top=0;left=0;right=0;bottom=0;align=left;verticalAlign=top;spacingTop=-2;fillColor=none;spacingLeft=64;spacingRight=4;overflow=hidden;rotatable=0;points=[[0,0.5],[1,0.5]];portConstraint=eastwest;dropTarget=0;" parent="gbYFq_Lmo5UCrpv-fVpX-28" vertex="1">
          <mxGeometry y="208" width="288" height="26" as="geometry" />
        </mxCell>
        <mxCell id="gbYFq_Lmo5UCrpv-fVpX-44" value="" style="shape=partialRectangle;top=0;left=0;bottom=0;fillColor=none;align=left;verticalAlign=middle;spacingLeft=4;spacingRight=4;overflow=hidden;rotatable=180;points=[];portConstraint=eastwest;part=1;" parent="gbYFq_Lmo5UCrpv-fVpX-43" vertex="1" connectable="0">
          <mxGeometry width="54" height="26" as="geometry" />
        </mxCell>
        <mxCell id="gbYFq_Lmo5UCrpv-fVpX-58" value="FactTransactions" style="swimlane;fontStyle=0;childLayout=stackLayout;horizontal=1;startSize=26;fillColor=default;horizontalStack=0;resizeParent=1;resizeLast=0;collapsible=1;marginBottom=0;swimlaneFillColor=default;align=center;" parent="1" vertex="1">
          <mxGeometry x="480" y="730" width="262" height="234" as="geometry" />
        </mxCell>
        <mxCell id="gbYFq_Lmo5UCrpv-fVpX-59" value="TransactionID" style="shape=partialRectangle;top=0;left=0;right=0;bottom=0;align=left;verticalAlign=top;spacingTop=-2;fillColor=none;spacingLeft=64;spacingRight=4;overflow=hidden;rotatable=0;points=[[0,0.5],[1,0.5]];portConstraint=eastwest;dropTarget=0;" parent="gbYFq_Lmo5UCrpv-fVpX-58" vertex="1">
          <mxGeometry y="26" width="262" height="26" as="geometry" />
        </mxCell>
        <mxCell id="gbYFq_Lmo5UCrpv-fVpX-60" value="SK" style="shape=partialRectangle;top=0;left=0;bottom=0;fillColor=none;align=left;verticalAlign=middle;spacingLeft=4;spacingRight=4;overflow=hidden;rotatable=180;points=[];portConstraint=eastwest;part=1;" parent="gbYFq_Lmo5UCrpv-fVpX-59" vertex="1" connectable="0">
          <mxGeometry width="54" height="26" as="geometry" />
        </mxCell>
        <mxCell id="gbYFq_Lmo5UCrpv-fVpX-61" value="BuyerID" style="shape=partialRectangle;top=0;left=0;right=0;bottom=0;align=left;verticalAlign=top;spacingTop=-2;fillColor=none;spacingLeft=64;spacingRight=4;overflow=hidden;rotatable=0;points=[[0,0.5],[1,0.5]];portConstraint=eastwest;dropTarget=0;" parent="gbYFq_Lmo5UCrpv-fVpX-58" vertex="1">
          <mxGeometry y="52" width="262" height="26" as="geometry" />
        </mxCell>
        <mxCell id="gbYFq_Lmo5UCrpv-fVpX-62" value="FK    " style="shape=partialRectangle;top=0;left=0;bottom=0;fillColor=none;align=left;verticalAlign=middle;spacingLeft=4;spacingRight=4;overflow=hidden;rotatable=180;points=[];portConstraint=eastwest;part=1;" parent="gbYFq_Lmo5UCrpv-fVpX-61" vertex="1" connectable="0">
          <mxGeometry width="54" height="26" as="geometry" />
        </mxCell>
        <mxCell id="gbYFq_Lmo5UCrpv-fVpX-63" value="SellerID" style="shape=partialRectangle;top=0;left=0;right=0;bottom=0;align=left;verticalAlign=top;spacingTop=-2;fillColor=none;spacingLeft=64;spacingRight=4;overflow=hidden;rotatable=0;points=[[0,0.5],[1,0.5]];portConstraint=eastwest;dropTarget=0;" parent="gbYFq_Lmo5UCrpv-fVpX-58" vertex="1">
          <mxGeometry y="78" width="262" height="26" as="geometry" />
        </mxCell>
        <mxCell id="gbYFq_Lmo5UCrpv-fVpX-64" value="FK" style="shape=partialRectangle;top=0;left=0;bottom=0;fillColor=none;align=left;verticalAlign=middle;spacingLeft=4;spacingRight=4;overflow=hidden;rotatable=180;points=[];portConstraint=eastwest;part=1;" parent="gbYFq_Lmo5UCrpv-fVpX-63" vertex="1" connectable="0">
          <mxGeometry width="54" height="26" as="geometry" />
        </mxCell>
        <mxCell id="gbYFq_Lmo5UCrpv-fVpX-65" value="ListingID" style="shape=partialRectangle;top=0;left=0;right=0;bottom=0;align=left;verticalAlign=top;spacingTop=-2;fillColor=none;spacingLeft=64;spacingRight=4;overflow=hidden;rotatable=0;points=[[0,0.5],[1,0.5]];portConstraint=eastwest;dropTarget=0;" parent="gbYFq_Lmo5UCrpv-fVpX-58" vertex="1">
          <mxGeometry y="104" width="262" height="26" as="geometry" />
        </mxCell>
        <mxCell id="gbYFq_Lmo5UCrpv-fVpX-66" value="FK" style="shape=partialRectangle;top=0;left=0;bottom=0;fillColor=none;align=left;verticalAlign=middle;spacingLeft=4;spacingRight=4;overflow=hidden;rotatable=180;points=[];portConstraint=eastwest;part=1;" parent="gbYFq_Lmo5UCrpv-fVpX-65" vertex="1" connectable="0">
          <mxGeometry width="54" height="26" as="geometry" />
        </mxCell>
        <mxCell id="gbYFq_Lmo5UCrpv-fVpX-67" value="TransactionDate" style="shape=partialRectangle;top=0;left=0;right=0;bottom=0;align=left;verticalAlign=top;spacingTop=-2;fillColor=none;spacingLeft=64;spacingRight=4;overflow=hidden;rotatable=0;points=[[0,0.5],[1,0.5]];portConstraint=eastwest;dropTarget=0;" parent="gbYFq_Lmo5UCrpv-fVpX-58" vertex="1">
          <mxGeometry y="130" width="262" height="26" as="geometry" />
        </mxCell>
        <mxCell id="gbYFq_Lmo5UCrpv-fVpX-68" value="" style="shape=partialRectangle;top=0;left=0;bottom=0;fillColor=none;align=left;verticalAlign=middle;spacingLeft=4;spacingRight=4;overflow=hidden;rotatable=180;points=[];portConstraint=eastwest;part=1;" parent="gbYFq_Lmo5UCrpv-fVpX-67" vertex="1" connectable="0">
          <mxGeometry width="54" height="26" as="geometry" />
        </mxCell>
        <mxCell id="gbYFq_Lmo5UCrpv-fVpX-69" value="Amount" style="shape=partialRectangle;top=0;left=0;right=0;bottom=0;align=left;verticalAlign=top;spacingTop=-2;fillColor=none;spacingLeft=64;spacingRight=4;overflow=hidden;rotatable=0;points=[[0,0.5],[1,0.5]];portConstraint=eastwest;dropTarget=0;" parent="gbYFq_Lmo5UCrpv-fVpX-58" vertex="1">
          <mxGeometry y="156" width="262" height="26" as="geometry" />
        </mxCell>
        <mxCell id="gbYFq_Lmo5UCrpv-fVpX-70" value="" style="shape=partialRectangle;top=0;left=0;bottom=0;fillColor=none;align=left;verticalAlign=middle;spacingLeft=4;spacingRight=4;overflow=hidden;rotatable=180;points=[];portConstraint=eastwest;part=1;" parent="gbYFq_Lmo5UCrpv-fVpX-69" vertex="1" connectable="0">
          <mxGeometry width="54" height="26" as="geometry" />
        </mxCell>
        <mxCell id="_1LRKsyYtLHhbKYTy__M-42" value="TransactionStatus " style="shape=partialRectangle;top=0;left=0;right=0;bottom=0;align=left;verticalAlign=top;spacingTop=-2;fillColor=none;spacingLeft=64;spacingRight=4;overflow=hidden;rotatable=0;points=[[0,0.5],[1,0.5]];portConstraint=eastwest;dropTarget=0;" vertex="1" parent="gbYFq_Lmo5UCrpv-fVpX-58">
          <mxGeometry y="182" width="262" height="26" as="geometry" />
        </mxCell>
        <mxCell id="_1LRKsyYtLHhbKYTy__M-43" value="" style="shape=partialRectangle;top=0;left=0;bottom=0;fillColor=none;align=left;verticalAlign=middle;spacingLeft=4;spacingRight=4;overflow=hidden;rotatable=180;points=[];portConstraint=eastwest;part=1;" vertex="1" connectable="0" parent="_1LRKsyYtLHhbKYTy__M-42">
          <mxGeometry width="54" height="26" as="geometry" />
        </mxCell>
        <mxCell id="_1LRKsyYtLHhbKYTy__M-44" value="DateSK " style="shape=partialRectangle;top=0;left=0;right=0;bottom=0;align=left;verticalAlign=top;spacingTop=-2;fillColor=none;spacingLeft=64;spacingRight=4;overflow=hidden;rotatable=0;points=[[0,0.5],[1,0.5]];portConstraint=eastwest;dropTarget=0;" vertex="1" parent="gbYFq_Lmo5UCrpv-fVpX-58">
          <mxGeometry y="208" width="262" height="26" as="geometry" />
        </mxCell>
        <mxCell id="_1LRKsyYtLHhbKYTy__M-45" value="FK" style="shape=partialRectangle;top=0;left=0;bottom=0;fillColor=none;align=left;verticalAlign=middle;spacingLeft=4;spacingRight=4;overflow=hidden;rotatable=180;points=[];portConstraint=eastwest;part=1;" vertex="1" connectable="0" parent="_1LRKsyYtLHhbKYTy__M-44">
          <mxGeometry width="54" height="26" as="geometry" />
        </mxCell>
        <mxCell id="gbYFq_Lmo5UCrpv-fVpX-71" value="FactReviews" style="swimlane;fontStyle=0;childLayout=stackLayout;horizontal=1;startSize=26;fillColor=default;horizontalStack=0;resizeParent=1;resizeLast=0;collapsible=1;marginBottom=0;swimlaneFillColor=default;align=center;" parent="1" vertex="1">
          <mxGeometry x="492.5" y="420" width="237" height="210" as="geometry" />
        </mxCell>
        <mxCell id="gbYFq_Lmo5UCrpv-fVpX-72" value="ReviewID" style="shape=partialRectangle;top=0;left=0;right=0;bottom=0;align=left;verticalAlign=top;spacingTop=-2;fillColor=none;spacingLeft=64;spacingRight=4;overflow=hidden;rotatable=0;points=[[0,0.5],[1,0.5]];portConstraint=eastwest;dropTarget=0;" parent="gbYFq_Lmo5UCrpv-fVpX-71" vertex="1">
          <mxGeometry y="26" width="237" height="26" as="geometry" />
        </mxCell>
        <mxCell id="gbYFq_Lmo5UCrpv-fVpX-73" value="SK" style="shape=partialRectangle;top=0;left=0;bottom=0;fillColor=none;align=left;verticalAlign=middle;spacingLeft=4;spacingRight=4;overflow=hidden;rotatable=180;points=[];portConstraint=eastwest;part=1;" parent="gbYFq_Lmo5UCrpv-fVpX-72" vertex="1" connectable="0">
          <mxGeometry width="54" height="26" as="geometry" />
        </mxCell>
        <mxCell id="gbYFq_Lmo5UCrpv-fVpX-74" value="UserID" style="shape=partialRectangle;top=0;left=0;right=0;bottom=0;align=left;verticalAlign=top;spacingTop=-2;fillColor=none;spacingLeft=64;spacingRight=4;overflow=hidden;rotatable=0;points=[[0,0.5],[1,0.5]];portConstraint=eastwest;dropTarget=0;" parent="gbYFq_Lmo5UCrpv-fVpX-71" vertex="1">
          <mxGeometry y="52" width="237" height="26" as="geometry" />
        </mxCell>
        <mxCell id="gbYFq_Lmo5UCrpv-fVpX-75" value="FK" style="shape=partialRectangle;top=0;left=0;bottom=0;fillColor=none;align=left;verticalAlign=middle;spacingLeft=4;spacingRight=4;overflow=hidden;rotatable=180;points=[];portConstraint=eastwest;part=1;" parent="gbYFq_Lmo5UCrpv-fVpX-74" vertex="1" connectable="0">
          <mxGeometry width="54" height="26" as="geometry" />
        </mxCell>
        <mxCell id="gbYFq_Lmo5UCrpv-fVpX-78" value="Rating" style="shape=partialRectangle;top=0;left=0;right=0;bottom=0;align=left;verticalAlign=top;spacingTop=-2;fillColor=none;spacingLeft=64;spacingRight=4;overflow=hidden;rotatable=0;points=[[0,0.5],[1,0.5]];portConstraint=eastwest;dropTarget=0;" parent="gbYFq_Lmo5UCrpv-fVpX-71" vertex="1">
          <mxGeometry y="78" width="237" height="26" as="geometry" />
        </mxCell>
        <mxCell id="gbYFq_Lmo5UCrpv-fVpX-79" value="" style="shape=partialRectangle;top=0;left=0;bottom=0;fillColor=none;align=left;verticalAlign=middle;spacingLeft=4;spacingRight=4;overflow=hidden;rotatable=180;points=[];portConstraint=eastwest;part=1;" parent="gbYFq_Lmo5UCrpv-fVpX-78" vertex="1" connectable="0">
          <mxGeometry width="54" height="26" as="geometry" />
        </mxCell>
        <mxCell id="gbYFq_Lmo5UCrpv-fVpX-80" value="Comment" style="shape=partialRectangle;top=0;left=0;right=0;bottom=0;align=left;verticalAlign=top;spacingTop=-2;fillColor=none;spacingLeft=64;spacingRight=4;overflow=hidden;rotatable=0;points=[[0,0.5],[1,0.5]];portConstraint=eastwest;dropTarget=0;" parent="gbYFq_Lmo5UCrpv-fVpX-71" vertex="1">
          <mxGeometry y="104" width="237" height="26" as="geometry" />
        </mxCell>
        <mxCell id="gbYFq_Lmo5UCrpv-fVpX-81" value="" style="shape=partialRectangle;top=0;left=0;bottom=0;fillColor=none;align=left;verticalAlign=middle;spacingLeft=4;spacingRight=4;overflow=hidden;rotatable=180;points=[];portConstraint=eastwest;part=1;" parent="gbYFq_Lmo5UCrpv-fVpX-80" vertex="1" connectable="0">
          <mxGeometry width="54" height="26" as="geometry" />
        </mxCell>
        <mxCell id="_1LRKsyYtLHhbKYTy__M-33" value="ReviewRating " style="shape=partialRectangle;top=0;left=0;right=0;bottom=0;align=left;verticalAlign=top;spacingTop=-2;fillColor=none;spacingLeft=64;spacingRight=4;overflow=hidden;rotatable=0;points=[[0,0.5],[1,0.5]];portConstraint=eastwest;dropTarget=0;" vertex="1" parent="gbYFq_Lmo5UCrpv-fVpX-71">
          <mxGeometry y="130" width="237" height="26" as="geometry" />
        </mxCell>
        <mxCell id="_1LRKsyYtLHhbKYTy__M-34" value="" style="shape=partialRectangle;top=0;left=0;bottom=0;fillColor=none;align=left;verticalAlign=middle;spacingLeft=4;spacingRight=4;overflow=hidden;rotatable=180;points=[];portConstraint=eastwest;part=1;" vertex="1" connectable="0" parent="_1LRKsyYtLHhbKYTy__M-33">
          <mxGeometry width="54" height="26" as="geometry" />
        </mxCell>
        <mxCell id="_1LRKsyYtLHhbKYTy__M-35" value="ReviewCount " style="shape=partialRectangle;top=0;left=0;right=0;bottom=0;align=left;verticalAlign=top;spacingTop=-2;fillColor=none;spacingLeft=64;spacingRight=4;overflow=hidden;rotatable=0;points=[[0,0.5],[1,0.5]];portConstraint=eastwest;dropTarget=0;" vertex="1" parent="gbYFq_Lmo5UCrpv-fVpX-71">
          <mxGeometry y="156" width="237" height="26" as="geometry" />
        </mxCell>
        <mxCell id="_1LRKsyYtLHhbKYTy__M-36" value="" style="shape=partialRectangle;top=0;left=0;bottom=0;fillColor=none;align=left;verticalAlign=middle;spacingLeft=4;spacingRight=4;overflow=hidden;rotatable=180;points=[];portConstraint=eastwest;part=1;" vertex="1" connectable="0" parent="_1LRKsyYtLHhbKYTy__M-35">
          <mxGeometry width="54" height="26" as="geometry" />
        </mxCell>
        <mxCell id="_1LRKsyYtLHhbKYTy__M-37" value="DateSK " style="shape=partialRectangle;top=0;left=0;right=0;bottom=0;align=left;verticalAlign=top;spacingTop=-2;fillColor=none;spacingLeft=64;spacingRight=4;overflow=hidden;rotatable=0;points=[[0,0.5],[1,0.5]];portConstraint=eastwest;dropTarget=0;" vertex="1" parent="gbYFq_Lmo5UCrpv-fVpX-71">
          <mxGeometry y="182" width="237" height="26" as="geometry" />
        </mxCell>
        <mxCell id="_1LRKsyYtLHhbKYTy__M-38" value="FK" style="shape=partialRectangle;top=0;left=0;bottom=0;fillColor=none;align=left;verticalAlign=middle;spacingLeft=4;spacingRight=4;overflow=hidden;rotatable=180;points=[];portConstraint=eastwest;part=1;" vertex="1" connectable="0" parent="_1LRKsyYtLHhbKYTy__M-37">
          <mxGeometry width="54" height="26" as="geometry" />
        </mxCell>
        <mxCell id="_1LRKsyYtLHhbKYTy__M-13" value="DimDates" style="swimlane;fontStyle=0;childLayout=stackLayout;horizontal=1;startSize=26;fillColor=default;horizontalStack=0;resizeParent=1;resizeLast=0;collapsible=1;marginBottom=0;swimlaneFillColor=default;align=center;" vertex="1" parent="1">
          <mxGeometry x="190" y="600" width="160" height="156" as="geometry" />
        </mxCell>
        <mxCell id="_1LRKsyYtLHhbKYTy__M-14" value="DateID " style="shape=partialRectangle;top=0;left=0;right=0;bottom=0;align=left;verticalAlign=top;spacingTop=-2;fillColor=none;spacingLeft=64;spacingRight=4;overflow=hidden;rotatable=0;points=[[0,0.5],[1,0.5]];portConstraint=eastwest;dropTarget=0;" vertex="1" parent="_1LRKsyYtLHhbKYTy__M-13">
          <mxGeometry y="26" width="160" height="26" as="geometry" />
        </mxCell>
        <mxCell id="_1LRKsyYtLHhbKYTy__M-15" value="SK" style="shape=partialRectangle;top=0;left=0;bottom=0;fillColor=none;align=left;verticalAlign=middle;spacingLeft=4;spacingRight=4;overflow=hidden;rotatable=180;points=[];portConstraint=eastwest;part=1;" vertex="1" connectable="0" parent="_1LRKsyYtLHhbKYTy__M-14">
          <mxGeometry width="54" height="26" as="geometry" />
        </mxCell>
        <mxCell id="_1LRKsyYtLHhbKYTy__M-16" value="FullDate" style="shape=partialRectangle;top=0;left=0;right=0;bottom=0;align=left;verticalAlign=top;spacingTop=-2;fillColor=none;spacingLeft=64;spacingRight=4;overflow=hidden;rotatable=0;points=[[0,0.5],[1,0.5]];portConstraint=eastwest;dropTarget=0;" vertex="1" parent="_1LRKsyYtLHhbKYTy__M-13">
          <mxGeometry y="52" width="160" height="26" as="geometry" />
        </mxCell>
        <mxCell id="_1LRKsyYtLHhbKYTy__M-17" value="" style="shape=partialRectangle;top=0;left=0;bottom=0;fillColor=none;align=left;verticalAlign=middle;spacingLeft=4;spacingRight=4;overflow=hidden;rotatable=180;points=[];portConstraint=eastwest;part=1;" vertex="1" connectable="0" parent="_1LRKsyYtLHhbKYTy__M-16">
          <mxGeometry width="54" height="26" as="geometry" />
        </mxCell>
        <mxCell id="_1LRKsyYtLHhbKYTy__M-19" value="Year" style="shape=partialRectangle;top=0;left=0;right=0;bottom=0;align=left;verticalAlign=top;spacingTop=-2;fillColor=none;spacingLeft=64;spacingRight=4;overflow=hidden;rotatable=0;points=[[0,0.5],[1,0.5]];portConstraint=eastwest;dropTarget=0;" vertex="1" parent="_1LRKsyYtLHhbKYTy__M-13">
          <mxGeometry y="78" width="160" height="26" as="geometry" />
        </mxCell>
        <mxCell id="_1LRKsyYtLHhbKYTy__M-20" value="" style="shape=partialRectangle;top=0;left=0;bottom=0;fillColor=none;align=left;verticalAlign=middle;spacingLeft=4;spacingRight=4;overflow=hidden;rotatable=180;points=[];portConstraint=eastwest;part=1;" vertex="1" connectable="0" parent="_1LRKsyYtLHhbKYTy__M-19">
          <mxGeometry width="54" height="26" as="geometry" />
        </mxCell>
        <mxCell id="_1LRKsyYtLHhbKYTy__M-21" value="Month" style="shape=partialRectangle;top=0;left=0;right=0;bottom=0;align=left;verticalAlign=top;spacingTop=-2;fillColor=none;spacingLeft=64;spacingRight=4;overflow=hidden;rotatable=0;points=[[0,0.5],[1,0.5]];portConstraint=eastwest;dropTarget=0;" vertex="1" parent="_1LRKsyYtLHhbKYTy__M-13">
          <mxGeometry y="104" width="160" height="26" as="geometry" />
        </mxCell>
        <mxCell id="_1LRKsyYtLHhbKYTy__M-22" value="" style="shape=partialRectangle;top=0;left=0;bottom=0;fillColor=none;align=left;verticalAlign=middle;spacingLeft=4;spacingRight=4;overflow=hidden;rotatable=180;points=[];portConstraint=eastwest;part=1;" vertex="1" connectable="0" parent="_1LRKsyYtLHhbKYTy__M-21">
          <mxGeometry width="54" height="26" as="geometry" />
        </mxCell>
        <mxCell id="_1LRKsyYtLHhbKYTy__M-23" value="WeekOfYear" style="shape=partialRectangle;top=0;left=0;right=0;bottom=0;align=left;verticalAlign=top;spacingTop=-2;fillColor=none;spacingLeft=64;spacingRight=4;overflow=hidden;rotatable=0;points=[[0,0.5],[1,0.5]];portConstraint=eastwest;dropTarget=0;" vertex="1" parent="_1LRKsyYtLHhbKYTy__M-13">
          <mxGeometry y="130" width="160" height="26" as="geometry" />
        </mxCell>
        <mxCell id="_1LRKsyYtLHhbKYTy__M-24" value="" style="shape=partialRectangle;top=0;left=0;bottom=0;fillColor=none;align=left;verticalAlign=middle;spacingLeft=4;spacingRight=4;overflow=hidden;rotatable=180;points=[];portConstraint=eastwest;part=1;" vertex="1" connectable="0" parent="_1LRKsyYtLHhbKYTy__M-23">
          <mxGeometry width="54" height="26" as="geometry" />
        </mxCell>
        <mxCell id="_1LRKsyYtLHhbKYTy__M-47" style="edgeStyle=orthogonalEdgeStyle;rounded=0;orthogonalLoop=1;jettySize=auto;html=1;exitX=1;exitY=0.5;exitDx=0;exitDy=0;entryX=0;entryY=0.5;entryDx=0;entryDy=0;" edge="1" parent="1" source="gbYFq_Lmo5UCrpv-fVpX-74" target="gbYFq_Lmo5UCrpv-fVpX-7">
          <mxGeometry relative="1" as="geometry" />
        </mxCell>
        <mxCell id="_1LRKsyYtLHhbKYTy__M-48" style="edgeStyle=orthogonalEdgeStyle;rounded=0;orthogonalLoop=1;jettySize=auto;html=1;exitX=1;exitY=0.5;exitDx=0;exitDy=0;entryX=0;entryY=0.5;entryDx=0;entryDy=0;" edge="1" parent="1" source="gbYFq_Lmo5UCrpv-fVpX-61" target="gbYFq_Lmo5UCrpv-fVpX-7">
          <mxGeometry relative="1" as="geometry">
            <Array as="points">
              <mxPoint x="800" y="795" />
              <mxPoint x="800" y="445" />
            </Array>
          </mxGeometry>
        </mxCell>
        <mxCell id="_1LRKsyYtLHhbKYTy__M-49" style="edgeStyle=orthogonalEdgeStyle;rounded=0;orthogonalLoop=1;jettySize=auto;html=1;exitX=1;exitY=0.5;exitDx=0;exitDy=0;entryX=0;entryY=0.5;entryDx=0;entryDy=0;" edge="1" parent="1" source="gbYFq_Lmo5UCrpv-fVpX-63" target="gbYFq_Lmo5UCrpv-fVpX-7">
          <mxGeometry relative="1" as="geometry">
            <mxPoint x="810" y="500" as="targetPoint" />
            <Array as="points">
              <mxPoint x="820" y="821" />
              <mxPoint x="820" y="445" />
            </Array>
          </mxGeometry>
        </mxCell>
        <mxCell id="_1LRKsyYtLHhbKYTy__M-51" style="edgeStyle=orthogonalEdgeStyle;rounded=0;orthogonalLoop=1;jettySize=auto;html=1;exitX=0;exitY=0.5;exitDx=0;exitDy=0;entryX=1;entryY=0.5;entryDx=0;entryDy=0;" edge="1" parent="1" source="_1LRKsyYtLHhbKYTy__M-37" target="_1LRKsyYtLHhbKYTy__M-14">
          <mxGeometry relative="1" as="geometry" />
        </mxCell>
        <mxCell id="_1LRKsyYtLHhbKYTy__M-52" style="edgeStyle=orthogonalEdgeStyle;rounded=0;orthogonalLoop=1;jettySize=auto;html=1;exitX=0;exitY=0.5;exitDx=0;exitDy=0;entryX=1;entryY=0.5;entryDx=0;entryDy=0;" edge="1" parent="1" source="_1LRKsyYtLHhbKYTy__M-44" target="_1LRKsyYtLHhbKYTy__M-14">
          <mxGeometry relative="1" as="geometry" />
        </mxCell>
        <mxCell id="_1LRKsyYtLHhbKYTy__M-53" style="edgeStyle=orthogonalEdgeStyle;rounded=0;orthogonalLoop=1;jettySize=auto;html=1;exitX=1;exitY=0.5;exitDx=0;exitDy=0;entryX=0;entryY=0.5;entryDx=0;entryDy=0;" edge="1" parent="1" source="gbYFq_Lmo5UCrpv-fVpX-65" target="gbYFq_Lmo5UCrpv-fVpX-29">
          <mxGeometry relative="1" as="geometry" />
        </mxCell>
        <mxCell id="_1LRKsyYtLHhbKYTy__M-54" style="edgeStyle=orthogonalEdgeStyle;rounded=0;orthogonalLoop=1;jettySize=auto;html=1;exitX=0;exitY=0.5;exitDx=0;exitDy=0;" edge="1" parent="1" source="gbYFq_Lmo5UCrpv-fVpX-37" target="gbYFq_Lmo5UCrpv-fVpX-22">
          <mxGeometry relative="1" as="geometry" />
        </mxCell>
        <mxCell id="_1LRKsyYtLHhbKYTy__M-55" style="edgeStyle=orthogonalEdgeStyle;rounded=0;orthogonalLoop=1;jettySize=auto;html=1;exitX=0;exitY=0.5;exitDx=0;exitDy=0;entryX=1;entryY=0.5;entryDx=0;entryDy=0;" edge="1" parent="1" source="gbYFq_Lmo5UCrpv-fVpX-39" target="gbYFq_Lmo5UCrpv-fVpX-7">
          <mxGeometry relative="1" as="geometry" />
        </mxCell>
      </root>
    </mxGraphModel>
  </diagram>
</mxfile>
